<?xml version="1.0" encoding="utf-8"?>
<!-- Generator: Adobe Illustrator 27.5.0, SVG Export Plug-In . SVG Version: 6.00 Build 0)  -->
<svg version="1.1" xmlns="http://www.w3.org/2000/svg" xmlns:xlink="http://www.w3.org/1999/xlink" x="0px" y="0px"
	 viewBox="0 0 500 500" style="enable-background:new 0 0 500 500;" xml:space="preserve">
<g id="BACKGROUND">
	<rect x="0.1" style="fill:#FFFFFF;" width="500" height="500"/>
</g>
<g id="OBJECTS">
	<g>
		<path style="fill:#DEDFE0;" d="M224.044,147.247c0,21.443-8.488,40.907-22.284,55.208c-14.467,14.997-34.767,24.325-57.249,24.325
			s-42.791-9.328-57.249-24.329c-13.804-14.301-22.288-33.765-22.288-55.204c0-43.926,35.612-79.533,79.537-79.533
			C188.437,67.714,224.044,103.322,224.044,147.247z"/>
		<path style="fill:#555A5E;" d="M177.871,148.442l-2.445-29.107c-1.195-14.225-13.531-24.893-27.78-24.023l0,0
			c-2.547,0.156-5.1,0.156-7.647,0h-0.001c-14.249-0.87-26.585,9.798-27.779,24.024l-2.445,29.107
			c-0.269,3.208,2.261,5.96,5.48,5.96h26.473h4.191h26.473C175.61,154.401,178.141,151.649,177.871,148.442z"/>
		<g>
			<path style="fill:#F4F4F4;" d="M201.763,202.455c-9.21,9.54-20.77,16.79-33.76,20.8c-3.12,0.97-6.32,1.74-9.59,2.31
				c-4.51,0.81-9.16,1.22-13.9,1.22c-4.71,0-9.32-0.41-13.8-1.2c-3.27-0.56-6.47-1.34-9.58-2.3c-13.04-4-24.64-11.26-33.87-20.83
				l1.37-5.4c2.07-8.11,8.46-14.42,16.61-16.36l0.07-0.02l13.54-3.24c0.74-0.18,1.47-0.4,2.17-0.69c0.21-0.08,0.43-0.17,0.64-0.27
				c0.37-0.15,0.73-0.32,1.08-0.51c1.49-0.78,2.83-1.77,3.99-2.95c0.08-0.08,0.16-0.16,0.24-0.24c0.95-1,1.79-2.13,2.47-3.35
				c0.68-1.22,1.21-2.53,1.57-3.93l1.06-4.12l0.28-1.11l0.02-0.09l1.36-5.25l0.4-1.57h20.75l1.54,6l0.15,0.54l0.07,0.3l0.02,0.07
				l0.29,1.12l1.06,4.11c0.36,1.39,0.89,2.71,1.58,3.93c1.86,3.35,4.86,5.98,8.5,7.37c0.34,0.13,0.69,0.25,1.04,0.36
				c0.34,0.1,0.68,0.2,1.03,0.28l13.62,3.26c0.01,0,0.02,0,0.03,0.01c8.13,1.95,14.51,8.25,16.57,16.35L201.763,202.455z"/>
			<path style="fill:#D2D4DA;" d="M156.645,160.195c-1.76,7.73-6.525,13.274-12.131,13.274c-5.61,0-10.384-5.557-12.14-13.295
				l1.354-5.25l0.406-1.569h20.748l1.544,5.999l0.141,0.538L156.645,160.195z"/>
			<path style="fill:#F4F4F4;" d="M121.304,130.779c-10.331-11.592-3.438,16.746,2.277,13.434
				C133.627,138.391,121.304,130.779,121.304,130.779z"/>
			<path style="fill:#F4F4F4;" d="M167.712,130.779c10.331-11.592,3.438,16.746-2.277,13.434
				C155.389,138.391,167.712,130.779,167.712,130.779z"/>
			<path style="fill:#F4F4F4;" d="M168.545,122.424c0,0.88-0.05,1.74-0.14,2.6c-0.23,2.28-2.76,26.21-7.78,31.24
				c-1.38,1.38-2.63,2.7-3.85,3.89c-1.1,1.08-2.19,2.06-3.34,2.88c-2.42,1.74-5.12,2.82-8.92,2.82h-0.01
				c-4.06,0-6.87-1.23-9.41-3.18c-0.97-0.75-1.9-1.6-2.85-2.52c-1.21-1.19-2.46-2.51-3.84-3.89c-2.65-2.64-4.6-10.49-5.89-17.69
				c-0.06-0.34-0.12-0.68-0.18-1.02c-1.16-6.78-1.74-12.71-1.74-12.71c-0.07-0.79-0.12-1.6-0.12-2.42c0-0.21,0.01-0.42,0.01-0.63
				c0.05-1.89,0.32-3.73,0.78-5.49c0.02-0.08,0.04-0.16,0.06-0.24c2.68-9.76,11.35-17.04,21.81-17.63c0.45-0.03,0.91-0.04,1.37-0.04
				h0.01C157.785,98.394,168.545,109.144,168.545,122.424z"/>
		</g>
		<g>
			<g>
				<path style="fill:#D2D4DA;" d="M133.066,146.414c-4.797,0-8.7-3.903-8.7-8.7c0-4.797,3.903-8.7,8.7-8.7
					c4.797,0,8.7,3.903,8.7,8.7C141.766,142.511,137.863,146.414,133.066,146.414z M133.066,129.929
					c-4.293,0-7.785,3.493-7.785,7.785c0,4.292,3.493,7.785,7.785,7.785c4.292,0,7.785-3.493,7.785-7.785
					C140.851,133.421,137.359,129.929,133.066,129.929z"/>
			</g>
			<g>
				<path style="fill:#D2D4DA;" d="M155.952,146.414c-4.797,0-8.7-3.903-8.7-8.7c0-4.797,3.903-8.7,8.7-8.7
					c4.797,0,8.7,3.903,8.7,8.7C164.652,142.511,160.749,146.414,155.952,146.414z M155.952,129.929
					c-4.292,0-7.785,3.493-7.785,7.785c0,4.292,3.493,7.785,7.785,7.785c4.292,0,7.785-3.493,7.785-7.785
					C163.737,133.421,160.244,129.929,155.952,129.929z"/>
			</g>
			<g>
				<path style="fill:#D2D4DA;" d="M148.167,137.714h-0.915c0-1.512-1.23-2.743-2.743-2.743c-1.512,0-2.743,1.23-2.743,2.743h-0.915
					c0-2.017,1.641-3.658,3.658-3.658C146.526,134.056,148.167,135.697,148.167,137.714z"/>
			</g>
		</g>
		<path style="fill:#DEDFE0;" d="M148.385,146.037c0,1.659-1.69,3.003-3.78,3.003c-2.08,0-3.77-1.344-3.77-3.003
			c0-0.199,0.02-0.397,0.08-0.583c0.33,1.378,1.86,2.42,3.69,2.42c1.84,0,3.37-1.042,3.7-2.42
			C148.365,145.64,148.385,145.839,148.385,146.037z"/>
		<path style="fill:#555A5E;" d="M170.953,121.635v3.53l-14.64,1.81c-1.46,0.18-2.92,0.33-4.39,0.44l-1.49-8.37l-1.52,8.56
			c-2.9,0.13-5.8,0.13-8.7,0.01l-1.52-8.57l-1.49,8.38c-1.53-0.12-3.06-0.27-4.59-0.46l-14.44-1.8v-3.53
			c0-13.16,10.67-23.83,23.83-23.83h5.11C160.283,97.805,170.953,108.475,170.953,121.635z"/>
		<g>
			<path style="fill:#6E7174;" d="M201.759,202.456c-14.467,14.997-34.767,24.325-57.249,24.325
				c-22.482,0-42.791-9.328-57.249-24.329l1.37-5.395c2.066-8.115,8.459-14.417,16.607-16.363l13.618-3.255
				c1.23-0.294,2.401-0.72,3.503-1.271c5.54,5.904,13.415,9.593,22.151,9.593c8.736,0,16.607-3.689,22.147-9.593
				c1.101,0.547,2.273,0.977,3.503,1.271l13.622,3.255c8.144,1.946,14.541,8.248,16.603,16.363L201.759,202.456z"/>
			<g>
				<g>
					<path style="fill:#D2D4DA;" d="M130.713,225.585c-3.27-0.56-6.47-1.34-9.58-2.3c-13.04-4-24.64-11.26-33.87-20.83l1.37-5.4
						c2.07-8.11,8.46-14.42,16.61-16.36l0.07-0.02l13.54-3.24c0.74-0.18,1.47-0.4,2.17-0.69L130.713,225.585z"/>
					<path style="opacity:0.3;fill:#6E7174;" d="M130.713,225.585c-3.27-0.56-6.47-1.34-9.58-2.3c-13.04-4-24.64-11.26-33.87-20.83
						l1.37-5.4c2.07-8.11,8.46-14.42,16.61-16.36l0.07-0.02l13.54-3.24c0.74-0.18,1.47-0.4,2.17-0.69L130.713,225.585z"/>
					<g>
						<path style="opacity:0.3;fill:#6E7174;" d="M130.713,225.585c-3.27-0.56-6.47-1.34-9.58-2.3l-5.58-28.1
							c-3.91,0.77-7.71-1.77-8.49-5.68l-1.75-8.83l13.54-3.24c0.74-0.18,1.47-0.4,2.17-0.69L130.713,225.585z"/>
						<g>
							<circle style="fill:#D2D4DA;" cx="121.738" cy="202.463" r="1.907"/>
							<path style="fill:#D2D4DA;" d="M126.003,215.148c0,1.053-0.854,1.907-1.907,1.907c-1.053,0-1.907-0.854-1.907-1.907
								c0-1.053,0.854-1.907,1.907-1.907C125.149,213.241,126.003,214.095,126.003,215.148z"/>
						</g>
					</g>
				</g>
				<g>
					<path style="fill:#D2D4DA;" d="M201.763,202.455c-9.21,9.54-20.77,16.79-33.76,20.8c-3.12,0.97-6.32,1.74-9.59,2.31l9.68-48.77
						c0.34,0.13,0.69,0.25,1.04,0.36c0.34,0.1,0.68,0.2,1.03,0.28l13.62,3.26c0.01,0,0.02,0,0.03,0.01
						c8.13,1.95,14.51,8.25,16.57,16.35L201.763,202.455z"/>
					<path style="opacity:0.3;fill:#6E7174;" d="M201.763,202.455c-9.21,9.54-20.77,16.79-33.76,20.8
						c-3.12,0.97-6.32,1.74-9.59,2.31l9.68-48.77c0.34,0.13,0.69,0.25,1.04,0.36c0.34,0.1,0.68,0.2,1.03,0.28l13.62,3.26
						c0.01,0,0.02,0,0.03,0.01c8.13,1.95,14.51,8.25,16.57,16.35L201.763,202.455z"/>
					<g>
						<path style="opacity:0.3;fill:#6E7174;" d="M183.813,180.705l-1.75,8.8c-0.78,3.91-4.58,6.45-8.49,5.68l-5.57,28.07
							c-3.12,0.97-6.32,1.74-9.59,2.31l9.68-48.77c0.34,0.13,0.69,0.25,1.04,0.36c0.34,0.1,0.68,0.2,1.03,0.28l13.62,3.26
							C183.793,180.695,183.803,180.695,183.813,180.705z"/>
						<g>
							<path style="fill:#D2D4DA;" d="M165.479,202.463c0,1.053,0.854,1.907,1.907,1.907c1.053,0,1.908-0.854,1.908-1.907
								c0-1.053-0.854-1.907-1.908-1.907C166.333,200.556,165.479,201.41,165.479,202.463z"/>
							<path style="fill:#D2D4DA;" d="M163.122,215.148c0,1.053,0.854,1.907,1.907,1.907c1.053,0,1.907-0.854,1.907-1.907
								c0-1.053-0.854-1.907-1.907-1.907C163.977,213.241,163.122,214.095,163.122,215.148z"/>
						</g>
					</g>
				</g>
			</g>
		</g>
	</g>
	<g>
		<path style="fill:#DEDFE0;" d="M435.227,352.746c0,21.45-8.49,40.91-22.29,55.21c-9.73,10.09-22.1,17.61-36,21.45
			c-6.76,1.88-13.89,2.88-21.25,2.88c-6.4,0-12.63-0.76-18.6-2.19c-14.98-3.59-28.31-11.41-38.64-22.14
			c-13.81-14.3-22.29-33.77-22.29-55.21c0-43.92,35.61-79.53,79.53-79.53C399.616,273.216,435.227,308.826,435.227,352.746z"/>
		<path style="fill:#F4F4F4;" d="M412.933,407.955c-14.47,15-34.77,24.33-57.25,24.33c-22.48,0-42.79-9.33-57.25-24.33l1.37-5.4
			c2.07-8.11,8.46-14.41,16.61-16.36l13.62-3.25c1.15-0.28,2.25-0.67,3.29-1.17c0.05-0.02,0.1-0.05,0.15-0.08
			c1.76-0.86,3.34-2.02,4.67-3.42c1.91-2.01,3.32-4.49,4.04-7.28l1.06-4.12l0.28-1.11l0.02-0.09l1.36-5.25l0.4-1.57h20.75l1.55,6
			l0.14,0.54l0.08,0.3l0.01,0.07l0.29,1.12l1.06,4.11c1.25,4.84,4.6,8.8,9.03,10.86c0.99,0.46,2.04,0.83,3.12,1.09l13.62,3.25
			c8.15,1.95,14.54,8.25,16.61,16.36L412.933,407.955z"/>
		<g>
			<path style="fill:#6E7174;" d="M412.933,407.955c-14.47,15-34.77,24.33-57.25,24.33c-22.48,0-42.79-9.33-57.25-24.33l1.37-5.4
				c2.07-8.11,8.46-14.41,16.61-16.36l13.62-3.25c1.15-0.28,2.25-0.67,3.29-1.17l12.071,20.032c4.72,7.833,16.078,7.833,20.798,0
				l12.021-19.952c0.99,0.46,2.04,0.83,3.12,1.09l13.62,3.25c8.15,1.95,14.54,8.25,16.61,16.36L412.933,407.955z"/>
			<g>
				<path style="fill:#D2D4DA;" d="M358.944,415.469c0,1.425-1.155,2.58-2.58,2.58c-1.425,0-2.58-1.155-2.58-2.58
					c0-1.425,1.155-2.58,2.58-2.58C357.789,412.889,358.944,414.044,358.944,415.469z"/>
				<path style="fill:#D2D4DA;" d="M358.944,425.106c0,1.425-1.155,2.58-2.58,2.58c-1.425,0-2.58-1.155-2.58-2.58
					c0-1.425,1.155-2.58,2.58-2.58C357.789,422.526,358.944,423.681,358.944,425.106z"/>
			</g>
		</g>
		<path style="fill:#D2D4DA;" d="M367.825,365.697c-1.76,7.73-6.525,13.274-12.131,13.274c-5.61,0-10.384-5.556-12.14-13.295
			l1.354-5.25l0.406-1.569h20.748l1.544,5.999l0.141,0.538L367.825,365.697z"/>
		<path style="fill:#F4F4F4;" d="M329.591,336.281c-10.331-11.592-3.438,16.746,2.277,13.434
			C341.914,343.893,329.591,336.281,329.591,336.281z"/>
		<path style="fill:#F4F4F4;" d="M381.795,336.281c10.331-11.592,3.438,16.746-2.277,13.434
			C369.472,343.893,381.795,336.281,381.795,336.281z"/>
		<path style="fill:#555A5E;" d="M382.956,327.526c0,2.68-0.3,5.28-0.86,7.76v0.01c-3.02,13.41-13.69,23.31-26.4,23.31
			c-15.06,0-27.27-13.91-27.27-31.08c0-9.52,3.75-18.03,9.66-23.73c4.75-4.59,10.9-7.36,17.61-7.36
			C370.757,296.436,382.956,310.356,382.956,327.526z"/>
		<path style="fill:#F4F4F4;" d="M379.727,327.926c0,0.88-0.05,1.74-0.15,2.6c-0.22,2.28-2.75,26.21-7.78,31.24
			c-2.63,2.64-4.76,5.04-7.18,6.77c-2.42,1.74-5.12,2.82-8.93,2.82c-3.8,0-6.51-1.08-8.93-2.81c-2.41-1.74-4.54-4.14-7.18-6.78
			c-2.38-2.38-4.2-9.01-5.48-15.57l-0.01-0.01c-0.13-0.71-0.27-1.41-0.39-2.11c-0.06-0.34-0.12-0.68-0.18-1.02
			c-1.16-6.78-1.74-12.71-1.74-12.71c-0.07-0.79-0.12-1.6-0.12-2.42c0-0.21,0.01-0.42,0.01-0.63c0.05-1.89,0.32-3.73,0.78-5.49
			c0.02-0.08,0.04-0.16,0.06-0.24c1.37-4.98,4.29-9.31,8.23-12.44c3.77-3.01,8.46-4.91,13.58-5.19c0.45-0.03,0.91-0.04,1.37-0.04
			c6.64,0,12.65,2.69,17,7.03C377.037,315.276,379.727,321.286,379.727,327.926z"/>
		<path style="fill:#DEDFE0;" d="M359.568,351.541c0,1.659-1.69,3.003-3.78,3.003c-2.08,0-3.77-1.344-3.77-3.003
			c0-0.199,0.02-0.397,0.08-0.583c0.33,1.378,1.86,2.42,3.69,2.42c1.84,0,3.37-1.042,3.7-2.42
			C359.548,351.143,359.568,351.342,359.568,351.541z"/>
		<path style="fill:#555A5E;" d="M332.396,335.599c0,0,12.089,2.305,23.397-16.445V300.25l-16.43,6.663l-8.376,12.087l-0.95,10.227
			L332.396,335.599z"/>
		<path style="fill:#D2D4DA;" d="M339.127,336.212L339.127,336.212c-0.755,0.313-1.621-0.045-1.934-0.8l-2.99-7.212
			c-0.313-0.755,0.045-1.621,0.8-1.934l0,0c0.755-0.313,1.621,0.045,1.934,0.8l2.99,7.212
			C340.24,335.034,339.882,335.899,339.127,336.212z"/>
		<path style="fill:#555A5E;" d="M379.19,335.599c0,0-12.089,2.305-23.397-16.445V300.25l16.43,6.663l8.376,12.087l0.95,10.227
			L379.19,335.599z"/>
		<path style="fill:#555A5E;" d="M385.283,370.775v35.12c-9.43,0-17.08-7.65-17.08-17.09v-23.39c1.14-1.13,2.3-2.36,3.59-3.65
			c1.25-1.25,2.34-3.66,3.29-6.63c1.95,0.86,3.71,2.07,5.2,3.56C383.373,361.795,385.283,366.055,385.283,370.775z"/>
	</g>
	<g>
		<path style="fill:#DEDFE0;" d="M224.044,352.751c0,21.443-8.488,40.907-22.284,55.208c-14.467,14.997-34.767,24.325-57.249,24.325
			s-42.791-9.328-57.249-24.329c-13.804-14.301-22.288-33.765-22.288-55.204c0-43.926,35.612-79.533,79.537-79.533
			C188.437,273.218,224.044,308.825,224.044,352.751z"/>
		<g>
			<g>
				<path style="fill:#555A5E;" d="M172.699,335.992h-40.325v-31.951l22.843-1.769c9.429-0.73,17.482,6.724,17.482,16.181V335.992z"
					/>
				<path style="fill:#555A5E;" d="M132.374,304.041h-3.224c-7.087,0-12.831,5.745-12.831,12.831v19.119l11.205-7.727
					L132.374,304.041z"/>
			</g>
			<path style="fill:#555A5E;" d="M172.699,333.048c0,17.75-12.62,32.14-28.19,32.14c-13.09,0-24.09-10.17-27.26-23.95
				c-0.61-2.61-0.93-5.36-0.93-8.19c0-17.74,12.62-32.13,28.19-32.13S172.699,315.308,172.699,333.048z"/>
			<g>
				<path style="fill:#F4F4F4;" d="M201.773,407.965c-4.99,5.17-10.68,9.67-16.9,13.33c-0.17,0.1-0.35,0.21-0.53,0.31
					c-11.71,6.79-25.31,10.68-39.82,10.68c-14.07,0-27.29-3.65-38.75-10.06c-0.53-0.3-1.05-0.6-1.57-0.9
					c-6.24-3.69-11.95-8.19-16.93-13.37l1.37-5.39c2.06-8.12,8.46-14.42,16.6-16.37l2.51-0.6l1.69-0.4l8.07-1.93l1.1-0.26l0.25-0.06
					c1.16-0.27,2.27-0.67,3.32-1.18c1.81-0.86,3.43-2.05,4.79-3.49c1.92-2,3.33-4.49,4.04-7.27l1.06-4.13l0.29-1.11l0.02-0.08
					l1.35-5.25l0.41-1.57h20.75l1.54,6l0.14,0.53l0.08,0.31l0.02,0.07l0.29,1.12l1.05,4.11c1.24,4.81,4.56,8.74,8.95,10.82h0.01
					c1.02,0.48,2.09,0.85,3.2,1.12l1.34,0.32l0.07,0.02l9.18,2.19l0.58,0.14l2.45,0.58c8.14,1.95,14.54,8.25,16.6,16.37
					L201.773,407.965z"/>
				<path style="fill:#D2D4DA;" d="M156.645,365.698c-1.76,7.73-6.525,13.274-12.131,13.274c-5.61,0-10.384-5.556-12.14-13.295
					l1.354-5.25l0.406-1.569h20.748l1.544,6l0.141,0.538L156.645,365.698z"/>
				<path style="fill:#F4F4F4;" d="M121.304,336.283c-10.331-11.592-3.438,16.746,2.277,13.434
					C133.627,343.895,121.304,336.283,121.304,336.283z"/>
				<path style="fill:#F4F4F4;" d="M167.712,336.283c10.331-11.592,3.438,16.746-2.277,13.434
					C155.389,343.895,167.712,336.283,167.712,336.283z"/>
				<path style="fill:#F4F4F4;" d="M168.543,327.925c0,0.88-0.05,1.75-0.14,2.6c-0.06,0.62-0.29,2.78-0.68,5.72l-0.01,0.04
					c-1.08,8.03-3.41,21.81-7.09,25.48c-2.64,2.65-4.77,5.04-7.18,6.78c-2.42,1.74-5.13,2.81-8.93,2.81h-0.01
					c-7.59,0-10.82-4.31-16.1-9.59c-2.64-2.64-4.59-10.49-5.89-17.68c-0.06-0.34-0.12-0.69-0.17-1.02
					c-0.18-1.07-0.35-2.13-0.51-3.14c-0.83-5.37-1.23-9.57-1.23-9.57c-0.08-0.8-0.12-1.61-0.12-2.43c0-0.21,0-0.42,0.01-0.63
					c0.05-1.89,0.31-3.73,0.77-5.49c0.02-0.08,0.05-0.16,0.07-0.24c2.67-9.76,11.34-17.04,21.8-17.63c0.46-0.03,0.91-0.04,1.37-0.04
					h0.01C157.783,303.895,168.543,314.655,168.543,327.925z"/>
			</g>
			<path style="fill:#DEDFE0;" d="M148.385,351.541c0,1.659-1.69,3.003-3.78,3.003c-2.08,0-3.77-1.344-3.77-3.003
				c0-0.199,0.02-0.397,0.08-0.583c0.33,1.378,1.86,2.42,3.69,2.42c1.84,0,3.37-1.042,3.7-2.42
				C148.365,351.143,148.385,351.342,148.385,351.541z"/>
			<path style="fill:#555A5E;" d="M169.173,328.082c0,0.903-0.051,1.796-0.144,2.668c-0.061,0.636-1.317,5.532-1.317,5.532
				c-24.465-1.078-34.847-12.715-34.847-12.715c-4.31,12.653-11.032,16.358-11.032,16.358c-0.852-5.511-1.857-9.349-1.857-9.349
				c-0.082-0.821-0.123-1.652-0.123-2.494c0-0.216,0-0.431,0.01-0.646c0.051-1.94,0.318-3.828,0.79-5.634
				c0.021-0.082,0.051-0.164,0.072-0.246c2.74-10.016,11.637-17.487,22.371-18.092c0.472-0.031,0.934-0.041,1.406-0.041h0.01
				C158.13,303.423,169.173,314.465,169.173,328.082z"/>
			<g>
				<g>
					<path style="fill:#D2D4DA;" d="M133.168,352.477c-4.821,0-8.743-3.922-8.743-8.743s3.922-8.743,8.743-8.743
						s8.743,3.922,8.743,8.743S137.989,352.477,133.168,352.477z M133.168,335.992c-4.27,0-7.743,3.473-7.743,7.743
						c0,4.27,3.474,7.743,7.743,7.743c4.27,0,7.743-3.473,7.743-7.743C140.91,339.465,137.437,335.992,133.168,335.992z"/>
				</g>
				<g>
					<path style="fill:#D2D4DA;" d="M156.054,352.477c-4.821,0-8.743-3.922-8.743-8.743s3.922-8.743,8.743-8.743
						c4.821,0,8.743,3.922,8.743,8.743S160.874,352.477,156.054,352.477z M156.054,335.992c-4.269,0-7.743,3.473-7.743,7.743
						c0,4.27,3.474,7.743,7.743,7.743c4.27,0,7.743-3.473,7.743-7.743C163.796,339.465,160.323,335.992,156.054,335.992z"/>
				</g>
				<g>
					<path style="fill:#D2D4DA;" d="M148.311,343.734h-1c0-1.489-1.211-2.7-2.7-2.7c-1.489,0-2.7,1.211-2.7,2.7h-1
						c0-2.041,1.66-3.7,3.7-3.7C146.651,340.034,148.311,341.694,148.311,343.734z"/>
				</g>
			</g>
			<g>
				<path style="fill:#555A5E;" d="M201.773,407.965c-4.99,5.17-10.68,9.67-16.9,13.33c-0.17,0.1-0.35,0.21-0.53,0.31
					c-6.1,3.54-12.72,6.29-19.71,8.11c-6.42,1.68-13.16,2.57-20.11,2.57c-6.89,0-13.57-0.87-19.94-2.53
					c-6.65-1.7-12.96-4.26-18.81-7.53c-0.53-0.3-1.05-0.6-1.57-0.9c-6.24-3.69-11.95-8.19-16.93-13.37l1.37-5.39
					c2.06-8.12,8.46-14.42,16.6-16.37l2.51-0.6l1.69-0.4l8.07-1.93l1.1-0.26l0.25-0.06c1.16-0.27,2.27-0.67,3.32-1.18l0.03,0.01
					l8.55,8.55c1.84,1.83,4,3.27,6.35,4.25c2.35,0.97,4.9,1.49,7.5,1.49c5.19,0,10.17-2.07,13.85-5.74l8.5-8.5h0.01
					c1.02,0.48,2.09,0.85,3.2,1.12l1.34,0.32l0.07,0.02l9.18,2.19l0.58,0.14l2.45,0.58c8.14,1.95,14.54,8.25,16.6,16.37
					L201.773,407.965z"/>
				<path style="fill:#6E7174;" d="M164.793,427.215c0,0.85-0.05,1.68-0.16,2.5c-6.42,1.68-13.16,2.57-20.11,2.57
					c-6.89,0-13.57-0.87-19.94-2.53c-0.11-0.83-0.16-1.68-0.16-2.54c0-11.15,9.04-20.19,20.19-20.19
					C155.763,407.025,164.793,416.065,164.793,427.215z"/>
			</g>
		</g>
	</g>
	<g>
		<path style="fill:#DEDFE0;" d="M435.227,147.247c0,21.443-8.488,40.907-22.284,55.208c-14.467,14.997-34.767,24.325-57.249,24.325
			c-22.483,0-42.791-9.328-57.25-24.329c-13.804-14.301-22.288-33.765-22.288-55.204c0-43.926,35.612-79.533,79.537-79.533
			C399.619,67.714,435.227,103.322,435.227,147.247z"/>
		<path style="fill:#F4F4F4;" d="M412.943,202.454c-14.47,15-34.77,24.33-57.25,24.33c-22.48,0-42.79-9.33-57.25-24.33l1.37-5.4
			c2.07-8.11,8.46-14.41,16.61-16.36l13.62-3.25c1.15-0.28,2.25-0.67,3.29-1.17c1.82-0.87,3.45-2.06,4.82-3.5
			c1.91-2.01,3.32-4.49,4.04-7.28l1.06-4.12l0.28-1.11l0.02-0.09l1.36-5.25l0.4-1.57h20.75l1.55,6l0.14,0.54l0.08,0.3l0.01,0.07
			l0.29,1.12l1.06,4.11c1.53,5.92,6.2,10.52,12.15,11.95l13.62,3.25c8.15,1.95,14.54,8.25,16.61,16.36L412.943,202.454z"/>
		<path style="fill:#D2D4DA;" d="M367.828,160.195c-1.76,7.73-6.525,13.274-12.131,13.274c-5.61,0-10.384-5.557-12.14-13.295
			l1.354-5.25l0.406-1.569h20.748l1.544,5.999l0.141,0.538L367.828,160.195z"/>
		<path style="fill:#F4F4F4;" d="M329.594,130.779c-10.331-11.592-3.438,16.746,2.277,13.434
			C341.917,138.391,329.594,130.779,329.594,130.779z"/>
		<path style="fill:#F4F4F4;" d="M381.798,130.779c10.331-11.592,3.438,16.746-2.277,13.434
			C369.475,138.391,381.798,130.779,381.798,130.779z"/>
		<ellipse style="fill:#555A5E;" cx="355.696" cy="122.023" rx="27.267" ry="31.084"/>
		<path style="fill:#F4F4F4;" d="M379.733,122.425c0,0.88-0.05,1.74-0.15,2.6c-0.12,1.22-0.9,8.59-2.36,15.98
			c-0.01,0.03-0.01,0.07-0.02,0.1c-1.27,6.43-3.06,12.83-5.4,15.16c-2.64,2.64-4.76,5.04-7.18,6.77c-2.42,1.74-5.13,2.82-8.93,2.82
			c-3.8,0-6.51-1.08-8.93-2.82c-2.41-1.73-4.54-4.13-7.18-6.77c-2.34-2.34-4.13-8.75-5.41-15.17v-0.01
			c-0.01-0.01-0.01-0.02-0.01-0.03c-0.16-0.83-0.31-1.66-0.46-2.48c-0.06-0.34-0.12-0.68-0.18-1.02
			c-1.17-6.78-1.74-12.71-1.74-12.71c-0.08-0.79-0.12-1.6-0.12-2.42c0-0.21,0-0.42,0.01-0.63c0.05-1.89,0.31-3.73,0.78-5.49
			c0.02-0.08,0.04-0.16,0.06-0.24c2.67-9.76,11.34-17.05,21.8-17.63c0.46-0.03,0.91-0.04,1.38-0.04c6.64,0,12.65,2.69,17,7.04
			C377.043,109.775,379.733,115.785,379.733,122.425z"/>
		<g>
			<rect x="336.152" y="192.637" style="opacity:0.3;fill:#6E7174;" width="39.088" height="24.176"/>
			<path style="fill:#6E7174;" d="M411.574,197.054c-2.07-8.11-8.46-14.41-16.61-16.36l-13.62-3.25c-1.15-0.28-2.25-0.67-3.29-1.17
				c-7.61,19.03-16.83,31.501-22.36,31.501c-5.53,0-14.75-12.471-22.36-31.501c-1.04,0.5-2.14,0.89-3.29,1.17l-13.62,3.25
				c-8.15,1.95-14.54,8.25-16.61,16.36l-1.37,5.4c14.46,15,34.77,24.33,57.25,24.33c22.48,0,42.79-9.33,57.25-24.33L411.574,197.054
				z"/>
		</g>
		<path style="fill:#DEDFE0;" d="M359.471,144.037c0,1.659-1.69,3.003-3.78,3.003c-2.08,0-3.77-1.344-3.77-3.003
			c0-0.199,0.02-0.397,0.08-0.583c0.33,1.378,1.86,2.42,3.69,2.42c1.84,0,3.37-1.042,3.7-2.42
			C359.451,143.64,359.471,143.839,359.471,144.037z"/>
		<path style="fill:#555A5E;" d="M372.619,104.945c-4.34-4.33-10.3-7.05-16.91-7.14h-0.023c-6.61,0.09-12.57,2.81-16.91,7.14
			c-4.42,4.41-7.15,10.52-7.15,17.27c0,0.89,0.05,1.76,0.15,2.64c0.12,1.24,0.91,8.72,2.4,16.23l0.02,0.06l3.15-16.92
			c0.55-2.96,3.13-5.1,6.14-5.09l3.57,0.006c1.016,3.827,4.495,6.652,8.642,6.652c4.147,0,7.625-2.824,8.642-6.652l3.57-0.006
			c3.01-0.01,5.59,2.13,6.14,5.09l3.15,16.92l0.02-0.06c1.49-7.51,2.28-14.99,2.4-16.23c0.1-0.88,0.15-1.75,0.15-2.64
			C379.769,115.465,377.039,109.355,372.619,104.945z"/>
		<path style="fill:#555A5E;" d="M376.429,133.977l-1.544,6.393c-1.476,6.007-4.323,11.591-8.316,16.316
			c-0.682,0.807-1.492,1.474-2.385,1.993v-1.942c0-3.729-3.033-6.762-6.761-6.762h-3.56c-3.728,0-6.762,3.033-6.762,6.762v1.885
			c-0.851-0.51-1.622-1.161-2.277-1.935l-0.002-0.003c-3.995-4.725-6.842-10.311-8.319-16.32l-1.43-5.854l-2.712,2.187l1.818,7.396
			l-0.007-0.009v0.01c1.28,6.42,3.07,12.83,5.41,15.17c2.64,2.64,4.77,5.04,7.18,6.77c2.42,1.74,5.13,2.82,8.93,2.82
			c3.8,0,6.51-1.08,8.93-2.82c2.42-1.73,4.54-4.13,7.18-6.77c2.323-2.313,4.103-8.636,5.371-15.017l1.855-7.55L376.429,133.977z
			 M351.803,159.925c-0.576,0-1.143-0.065-1.7-0.171v-3.017c0-2.074,1.688-3.762,3.762-3.762h3.56c2.073,0,3.761,1.688,3.761,3.762
			v3.035c-0.523,0.093-1.054,0.153-1.593,0.153H351.803z"/>
	</g>
</g>
</svg>
